<svg width="15" height="16" viewBox="0 0 15 16" fill="none" xmlns="http://www.w3.org/2000/svg">
<path d="M12.4937 6.10114C12.4937 6.10114 12.0864 11.1524 11.8502 13.2801C11.7377 14.2964 11.1099 14.8919 10.0817 14.9106C8.12492 14.9459 6.16592 14.9481 4.20992 14.9069C3.22067 14.8866 2.60342 14.2836 2.49317 13.2854C2.25542 11.1389 1.85042 6.10114 1.85042 6.10114" stroke="white" stroke-width="1.5" stroke-linecap="round" stroke-linejoin="round"/>
<path d="M13.5311 3.67978H0.812649" stroke="white" stroke-width="1.5" stroke-linecap="round" stroke-linejoin="round"/>
<path d="M11.0805 3.67977C10.4917 3.67977 9.9847 3.26352 9.8692 2.68677L9.68695 1.77477C9.57445 1.35402 9.19345 1.06302 8.7592 1.06302H5.58445C5.1502 1.06302 4.7692 1.35402 4.6567 1.77477L4.47445 2.68677C4.35895 3.26352 3.85195 3.67977 3.2632 3.67977" stroke="white" stroke-width="1.5" stroke-linecap="round" stroke-linejoin="round"/>
</svg>
