<svg width="41" height="41" viewBox="0 0 41 41" fill="none" xmlns="http://www.w3.org/2000/svg">
<path d="M0.292893 39.2929C-0.0976311 39.6834 -0.0976311 40.3166 0.292893 40.7071C0.683417 41.0976 1.31658 41.0976 1.70711 40.7071L0.292893 39.2929ZM41 1C41 0.447715 40.5523 0 40 0H31C30.4477 0 30 0.447715 30 1C30 1.55228 30.4477 2 31 2H39V10C39 10.5523 39.4477 11 40 11C40.5523 11 41 10.5523 41 10V1ZM1.70711 40.7071L40.7071 1.70711L39.2929 0.292893L0.292893 39.2929L1.70711 40.7071Z" fill="#A9B2B9"/>
</svg>
