<svg width="20" height="16" viewBox="0 0 20 16" fill="none" xmlns="http://www.w3.org/2000/svg">
<path d="M7.91756 8.24081L15.6655 2.85064L16.8449 4.14655L10.7509 11.354L7.91756 8.24081ZM5.58746 8.65199L10.1228 13.6353C10.2167 13.7283 10.3292 13.8003 10.453 13.8466C10.5768 13.8929 10.709 13.9123 10.8409 13.9038C10.9728 13.8952 11.1013 13.8587 11.2181 13.7967C11.3348 13.7348 11.4371 13.6488 11.5181 13.5444L18.9695 4.73139C19.1179 4.56827 19.202 4.35672 19.2059 4.1362C19.2098 3.91569 19.1333 3.70128 18.9908 3.53299L16.4778 0.771826C16.3236 0.614102 16.1174 0.517858 15.8975 0.501055C15.6775 0.484251 15.459 0.548036 15.2827 0.680506L5.80905 7.27134C5.69748 7.3422 5.60223 7.43593 5.52958 7.54634C5.45693 7.65674 5.40853 7.78131 5.38759 7.9118C5.36664 8.0423 5.37363 8.17575 5.40808 8.30334C5.44254 8.43094 5.50367 8.54977 5.58746 8.65199ZM0.793945 14.5277L6.4113 15.5L7.89044 14.1538L4.86155 10.8258L0.793945 14.5277Z" fill="#1C2731"/>
</svg>
