<svg width="33" height="30" viewBox="0 0 33 30" fill="none" xmlns="http://www.w3.org/2000/svg">
<path d="M31.9057 24.3932L19.1144 1.7178C17.8224 -0.572601 14.5239 -0.572601 13.2319 1.7178L0.440634 24.3932C-0.82925 26.6443 0.797286 29.4294 3.38192 29.4294H28.9644C31.549 29.4294 33.1756 26.6443 31.9057 24.3932Z" fill="#FFBA33"/>
<path fill-rule="evenodd" clip-rule="evenodd" d="M16.1731 7.47894C17.1056 7.47894 17.8616 8.23491 17.8616 9.16744H16.1731H14.4846C14.4846 8.23491 15.2406 7.47894 16.1731 7.47894ZM16.1731 9.16744H14.4846V16.7657C14.4846 17.6982 15.2406 18.4542 16.1731 18.4542C17.1056 18.4542 17.8616 17.6982 17.8616 16.7657V9.16744H16.1731Z" fill="white"/>
<path fill-rule="evenodd" clip-rule="evenodd" d="M16.1731 20.1426C17.1056 20.1426 17.8616 20.8986 17.8616 21.8311V22.6754C17.8616 23.6079 17.1056 24.3639 16.1731 24.3639C15.2406 24.3639 14.4846 23.6079 14.4846 22.6754V21.8311C14.4846 20.8986 15.2406 20.1426 16.1731 20.1426Z" fill="white"/>
</svg>
